<?xml version="1.0" standalone="no"?>
<!DOCTYPE svg PUBLIC "-//W3C//DTD SVG 20010904//EN"
 "http://www.w3.org/TR/2001/REC-SVG-20010904/DTD/svg10.dtd">
<svg version="1.0" xmlns="http://www.w3.org/2000/svg"
 width="480.000000pt" height="216.000000pt" viewBox="0 0 480.000000 216.000000"
 preserveAspectRatio="xMidYMid meet">

<g transform="translate(0.000000,216.000000) scale(0.100000,-0.100000)"
fill="#000000" stroke="none">
<path d="M2336 1761 c-3 -5 2 -8 12 -7 21 1 28 -43 12 -74 -14 -27 -21 -21
-31 27 l-8 38 3 -40 c2 -22 7 -47 10 -55 3 -8 -8 -37 -25 -63 l-30 -48 -34 30
c-67 58 -189 113 -249 110 -12 0 2 -6 29 -13 73 -18 142 -51 194 -93 25 -20
48 -38 49 -39 2 -1 1 -12 -3 -23 -6 -18 -9 -17 -45 18 -135 131 -365 155 -540
57 -76 -43 -166 -131 -183 -179 -3 -8 -19 0 -43 19 -170 135 -419 164 -630 74
-95 -41 -294 -50 -294 -14 0 8 6 17 14 20 8 3 17 12 20 20 3 8 -22 -8 -55 -36
-33 -27 -67 -50 -75 -50 -8 0 -13 -4 -10 -9 9 -15 -39 -29 -85 -25 -47 5 -76
-6 -65 -25 8 -12 61 -14 91 -2 26 11 67 -4 95 -34 21 -23 22 -26 8 -42 -23
-27 -71 -113 -86 -153 -52 -145 5 -349 132 -468 67 -62 211 -162 235 -162 8 0
-25 23 -73 52 -204 122 -310 301 -293 496 8 92 77 232 114 232 9 0 14 -3 10
-6 -3 -3 1 -24 9 -47 11 -31 12 -49 4 -71 -5 -16 -10 -38 -10 -50 0 -38 29 6
36 54 6 49 19 72 73 139 101 124 298 211 480 211 156 0 398 -109 384 -172 -3
-17 -2 -19 5 -9 6 8 15 10 23 5 11 -6 11 -5 0 9 -19 24 -2 55 69 120 138 127
323 165 504 106 87 -29 159 -84 167 -129 4 -19 7 -26 8 -15 1 17 3 18 11 5 8
-11 9 -9 5 10 -3 14 -1 32 5 40 8 12 14 9 39 -20 17 -19 30 -38 31 -42 1 -19
19 -5 30 22 24 58 61 67 42 10 -11 -31 -7 -60 9 -60 4 0 13 19 20 43 15 56 42
84 116 118 189 87 429 41 586 -112 41 -39 58 -63 53 -73 -3 -9 -9 -24 -13 -33
-4 -10 5 -5 20 11 15 16 27 32 27 37 0 13 111 75 170 95 42 14 83 19 170 19
169 -1 271 -35 451 -153 69 -46 86 -62 86 -81 1 -29 32 -56 47 -41 7 7 5 19
-6 38 -18 31 -15 40 23 64 25 16 28 16 61 -7 43 -29 87 -93 99 -142 14 -60 11
-179 -7 -247 -22 -88 -88 -219 -132 -262 -20 -20 -57 -50 -81 -65 -25 -16 -40
-29 -34 -29 26 0 135 85 169 133 106 147 143 327 103 490 -11 43 -55 97 -106
128 -33 21 -34 23 -17 36 10 7 43 13 74 13 57 0 104 20 82 34 -7 4 -12 2 -12
-3 0 -6 -12 -10 -27 -10 -24 2 -25 2 -5 6 23 5 31 23 9 23 -6 0 -28 -4 -47
-10 -24 -7 -45 -7 -68 1 l-34 11 24 16 c28 19 110 92 103 92 -3 0 -31 -20 -63
-45 -62 -49 -90 -55 -116 -26 -16 18 -16 19 15 30 18 6 30 14 26 17 -3 3 -14
1 -25 -5 -35 -19 -59 -12 -87 22 -15 17 -24 25 -19 17 4 -8 14 -23 22 -32 7
-9 11 -22 7 -27 -3 -6 1 -11 10 -11 9 0 27 -11 40 -24 28 -28 18 -36 -41 -36
-19 0 -34 -4 -34 -10 0 -5 9 -10 20 -10 22 0 90 -30 90 -40 0 -4 -11 -17 -25
-30 l-24 -23 -73 55 c-40 31 -88 64 -105 74 -39 22 -42 33 -8 26 36 -6 136 8
129 19 -3 5 -10 7 -16 3 -24 -15 -184 -5 -243 16 -77 28 -197 36 -310 21 -70
-9 -109 -21 -173 -53 -45 -22 -89 -49 -96 -60 -13 -19 -15 -18 -42 19 -168
229 -495 279 -706 110 -38 -31 -61 -30 -42 1 19 31 108 92 159 109 28 9 77 20
110 23 l60 7 -50 2 c-27 0 -77 -7 -111 -18 -58 -17 -164 -77 -178 -100 -11
-18 -20 -13 -45 24 -21 32 -22 39 -12 79 7 30 8 53 1 70 -9 26 -33 35 -44 17z
m45 -187 c19 -32 20 -39 9 -58 -8 -11 -19 -31 -25 -44 l-12 -22 -27 35 -27 36
28 44 c15 25 29 45 30 45 1 0 11 -16 24 -36z m-1743 -122 c88 -4 92 -5 70 -20
-26 -19 -61 -58 -121 -135 l-43 -55 -19 46 -18 46 38 33 c21 18 44 33 52 33 7
0 13 4 13 8 0 5 -13 7 -30 4 -16 -2 -28 -7 -27 -11 1 -4 -11 -19 -27 -33 l-29
-25 -45 25 c-41 23 -43 26 -26 39 10 7 26 13 36 13 10 0 15 5 12 13 -6 16 35
38 56 30 8 -3 57 -8 108 -11z m1802 -2 c0 -11 -4 -20 -9 -20 -5 0 -7 9 -4 20
3 11 7 20 9 20 2 0 4 -9 4 -20z m1779 -34 l24 -13 -21 -12 c-17 -9 -28 -8 -53
5 -25 12 -29 18 -18 25 19 12 40 11 68 -5z m-3874 -26 c-3 -5 -21 -10 -38 -10
-24 0 -28 3 -17 10 20 13 63 13 55 0z m3811 -138 c-9 -8 -26 10 -26 26 1 15 2
15 15 -2 8 -11 13 -21 11 -24z"/>
<path d="M1928 1683 c7 -3 16 -2 19 1 4 3 -2 6 -13 5 -11 0 -14 -3 -6 -6z"/>
<path d="M2788 1683 c7 -3 16 -2 19 1 4 3 -2 6 -13 5 -11 0 -14 -3 -6 -6z"/>
<path d="M1800 1576 c-45 -13 -170 -72 -170 -81 0 -2 28 9 63 25 151 71 295
78 420 22 37 -17 67 -29 67 -26 0 3 -30 19 -67 36 -58 28 -79 32 -167 34 -63
2 -118 -2 -146 -10z"/>
<path d="M2650 1576 c-46 -13 -130 -53 -130 -61 0 -3 14 2 31 10 46 24 163 46
245 46 115 0 174 -15 255 -67 22 -13 39 -22 39 -19 0 13 -101 68 -159 85 -73
23 -209 26 -281 6z"/>
<path d="M444 1496 c11 -9 24 -16 30 -16 12 0 7 5 -24 19 -24 11 -24 11 -6 -3z"/>
<path d="M918 1339 c-126 -14 -226 -115 -244 -246 -12 -97 60 -203 138 -203
59 0 123 43 155 105 20 37 23 139 5 157 -11 11 -12 4 -6 -40 21 -163 -142
-270 -234 -152 -26 34 -34 62 -34 122 2 146 163 275 299 239 57 -16 97 -52
129 -117 72 -148 -11 -331 -177 -390 -39 -13 -47 -13 -93 5 -68 25 -132 35
-140 22 -11 -17 35 -39 101 -50 42 -6 85 -23 131 -50 69 -40 130 -60 167 -55
80 11 105 18 143 40 54 32 50 41 -5 13 -74 -36 -149 -31 -253 18 l-55 26 52
13 c166 44 260 213 207 371 -42 127 -145 188 -286 172z m-101 -528 c23 -14 12
-14 -42 0 -25 6 -42 15 -40 19 6 9 53 -2 82 -19z"/>
<path d="M2135 1322 c-125 -44 -245 -179 -245 -275 0 -34 24 -67 49 -67 53 0
167 108 208 196 29 64 25 84 -5 25 -72 -137 -153 -212 -219 -199 -43 8 -20 93
50 180 65 82 229 164 277 138 54 -29 8 -110 -144 -257 -101 -97 -116 -117
-130 -163 -14 -48 -14 -56 -1 -77 11 -16 25 -23 47 -23 25 0 43 13 100 72 38
39 103 117 145 172 108 142 161 205 186 217 12 6 7 -1 -11 -16 -35 -29 -65
-69 -157 -215 -67 -106 -95 -166 -95 -208 0 -59 44 -69 86 -19 17 20 29 27 31
20 6 -18 48 -16 62 1 11 13 15 12 32 -5 18 -18 22 -18 48 -4 26 13 101 95 87
95 -3 0 -27 -20 -53 -45 -73 -71 -87 -56 -26 29 100 138 184 268 179 274 -13
12 -39 -15 -100 -103 -58 -84 -63 -89 -98 -91 -51 -1 -73 -18 -132 -104 -56
-81 -84 -102 -72 -54 20 77 180 367 238 430 41 45 45 54 24 54 -23 0 -109 -73
-158 -136 -26 -32 -92 -116 -147 -186 -130 -163 -171 -196 -179 -142 -3 23 36
83 135 207 72 89 118 165 133 218 8 26 5 35 -15 55 -29 29 -61 30 -130 6z
m315 -375 c0 -18 -89 -117 -106 -117 -12 0 -12 4 1 30 35 67 105 126 105 87z"/>
<path d="M3951 1148 c-10 -26 3 -58 23 -58 18 0 28 27 20 53 -4 14 -2 18 7 15
16 -5 23 -40 15 -72 -3 -13 -24 -43 -46 -68 -22 -25 -44 -59 -50 -74 l-11 -29
23 26 c13 15 40 36 60 48 79 47 73 181 -8 181 -16 0 -28 -8 -33 -22z"/>
<path d="M1535 1066 c-11 -8 -16 -20 -12 -29 4 -10 -1 -20 -11 -26 -16 -10
-16 -10 1 -11 9 0 26 9 37 20 34 34 21 73 -15 46z"/>
<path d="M3519 968 c-91 -105 -116 -128 -136 -128 -13 0 -14 3 -2 19 77 104
81 112 68 127 -7 8 -20 12 -31 8 -17 -5 -19 -3 -13 16 6 18 3 21 -17 18 -18
-2 -24 -10 -26 -36 -5 -45 -132 -184 -132 -143 0 5 21 37 46 71 25 34 44 64
42 66 -3 2 -25 4 -50 5 -53 2 -86 -18 -145 -86 l-38 -45 5 62 c3 35 11 73 18
86 28 49 -14 19 -107 -78 -53 -55 -99 -100 -103 -100 -16 0 -6 19 42 83 28 36
50 68 50 70 0 11 -108 4 -127 -9 -12 -8 -54 -46 -92 -84 -50 -50 -78 -70 -96
-70 -29 0 -31 9 -9 53 23 45 64 87 86 87 24 0 23 -21 -2 -27 -20 -5 -37 -39
-25 -51 10 -11 39 13 49 41 8 20 6 31 -8 46 -23 26 -64 12 -106 -35 -34 -39
-45 -73 -36 -109 9 -35 51 -33 104 6 31 23 42 27 42 15 0 -25 33 -37 63 -21
22 11 28 11 38 -1 16 -19 29 -18 55 7 l22 21 20 -20 c23 -23 69 -22 104 2 19
13 22 13 38 -6 15 -19 20 -20 47 -9 25 10 35 10 51 0 17 -11 25 -9 56 14 19
15 54 52 78 82 26 33 50 55 62 55 18 0 18 -2 -6 -27 -39 -42 -58 -85 -47 -106
11 -20 40 -22 57 -5 9 9 18 9 37 0 39 -18 89 -14 118 8 l26 20 25 -25 c21 -21
29 -23 53 -15 31 11 97 69 88 78 -3 3 -18 -6 -33 -20 -37 -35 -72 -52 -83 -41
-16 16 0 39 39 56 74 33 118 98 76 114 -26 10 -81 -26 -136 -89 -55 -63 -112
-107 -70 -53 15 19 22 42 22 70 0 28 8 54 25 79 46 67 0 39 -76 -46z m219 0
c-19 -28 -78 -74 -78 -60 0 18 61 82 77 82 14 0 14 -3 1 -22z m-680 -47 c-22
-67 -48 -97 -75 -86 -16 6 -16 8 5 18 17 8 22 16 18 32 -4 14 4 33 25 58 17
20 34 37 38 37 5 0 0 -27 -11 -59z m482 12 c-17 -50 -47 -93 -67 -93 -14 0
-14 2 0 18 10 10 17 26 17 36 0 19 50 90 57 82 3 -3 -1 -22 -7 -43z m-620 26
c0 -26 -85 -129 -107 -129 -20 0 -16 18 14 58 50 68 93 100 93 71z m300 -54
c-27 -39 -56 -65 -75 -65 -12 0 26 59 61 97 47 49 56 29 14 -32z"/>
<path d="M1674 985 c-8 -13 -13 -29 -9 -35 11 -17 -111 -130 -141 -130 -42 0
-28 39 19 55 71 24 113 85 68 100 -10 3 -30 1 -44 -4 -25 -10 -97 -77 -97 -91
0 -12 -71 -63 -77 -56 -3 3 17 36 46 73 42 55 49 69 35 72 -11 2 -31 -13 -53
-40 -50 -60 -103 -109 -118 -109 -20 0 -16 8 37 72 28 33 50 64 50 69 0 17
-30 9 -48 -13 -91 -115 -171 -164 -88 -53 51 67 54 75 28 75 -9 0 -40 -26 -67
-59 -28 -32 -76 -78 -107 -102 -32 -23 -56 -45 -54 -47 2 -2 29 13 59 32 32
21 58 32 62 26 9 -14 47 -12 69 5 16 12 21 12 37 -8 18 -22 18 -22 50 -4 22
12 35 15 43 7 16 -16 41 -12 61 10 23 25 32 25 40 1 16 -50 100 -19 171 64 26
30 54 55 61 55 21 0 16 -10 -28 -57 -27 -29 -39 -51 -37 -66 4 -30 41 -34 76
-8 28 19 28 19 40 0 19 -29 71 -25 112 10 19 16 32 32 28 36 -4 4 -22 -7 -40
-24 -33 -31 -62 -39 -72 -22 -11 18 6 40 40 51 41 14 95 65 88 85 -17 44 -70
19 -152 -71 -38 -42 -66 -65 -77 -62 -14 2 -10 12 24 54 45 57 53 94 21 94
-13 0 -20 7 -20 20 0 27 -16 25 -36 -5z m-96 -65 c-13 -11 -31 -25 -41 -31
-16 -9 -17 -8 -9 8 6 10 23 32 38 48 24 26 29 27 32 12 2 -10 -7 -26 -20 -37z
m312 32 c0 -11 -60 -72 -71 -72 -15 0 -10 11 19 45 25 32 52 45 52 27z"/>
<path d="M3860 861 c-16 -30 -12 -43 13 -39 16 2 23 11 25 31 4 32 -21 38 -38
8z"/>
<path d="M2536 854 c-22 -22 -15 -39 15 -39 19 0 24 5 24 24 0 30 -17 37 -39
15z"/>
<path d="M1833 743 c9 -2 23 -2 30 0 6 3 -1 5 -18 5 -16 0 -22 -2 -12 -5z"/>
<path d="M2254 702 c1 -50 -7 -55 -59 -38 -11 4 -5 -1 13 -10 36 -20 39 -26
18 -43 -11 -10 -29 -8 -81 8 -113 35 -240 24 -258 -23 -4 -9 7 -6 30 10 28 18
49 24 93 24 49 0 147 -21 175 -38 5 -3 -18 -18 -50 -34 -69 -32 -59 -37 17 -8
29 11 60 20 69 20 8 0 39 -21 68 -47 59 -54 77 -100 54 -143 -19 -36 -16 -74
7 -95 20 -18 21 -18 41 1 23 24 25 43 11 101 -5 24 -6 40 -1 37 5 -3 9 6 9 19
0 27 47 75 100 102 29 15 32 14 63 -8 84 -63 224 -82 285 -38 36 25 41 52 15
72 -16 13 -17 12 -4 -4 13 -16 12 -21 -6 -38 -43 -43 -141 -46 -242 -6 -86 35
-79 49 34 72 39 9 50 13 31 14 -66 2 -248 -71 -271 -109 -4 -6 -12 -7 -18 -4
-7 4 -9 4 -5 -1 10 -11 -12 -49 -23 -38 -10 10 -1 53 12 53 5 0 9 6 9 13 -1 6
-9 2 -20 -11 l-19 -23 -60 48 c-55 45 -58 49 -44 66 15 16 18 16 42 1 25 -15
26 -15 5 3 -16 14 -19 27 -16 60 2 26 -1 49 -10 62 -13 18 -14 16 -14 -27z
m138 -329 c7 -28 -6 -68 -24 -71 -21 -4 -27 16 -16 56 9 34 33 43 40 15z"/>
<path d="M2503 695 c0 -33 2 -45 4 -27 2 18 2 45 0 60 -2 15 -4 0 -4 -33z"/>
<path d="M2957 739 c55 -5 135 -25 238 -59 86 -28 161 -50 168 -48 7 1 38 -6
70 -16 33 -9 66 -16 75 -14 24 5 -337 117 -429 133 -46 8 -111 14 -144 14 -59
-2 -58 -2 22 -10z"/>
<path d="M1743 733 c9 -2 23 -2 30 0 6 3 -1 5 -18 5 -16 0 -22 -2 -12 -5z"/>
<path d="M1550 689 c-146 -45 -275 -83 -343 -100 -26 -6 -46 -14 -43 -16 7 -7
165 34 311 81 77 25 165 51 195 60 30 8 44 14 30 14 -14 0 -81 -17 -150 -39z"/>
<path d="M2778 709 c-59 -9 -149 -36 -168 -50 -12 -9 -11 -10 5 -4 79 29 169
45 244 45 97 0 170 -15 317 -66 154 -52 319 -84 464 -89 l125 -4 -95 9 c-120
11 -266 41 -383 80 -201 66 -397 96 -509 79z"/>
<path d="M1774 694 c-91 -13 -79 -10 -274 -69 -296 -90 -326 -99 -385 -111
-72 -15 -32 -18 46 -4 30 5 68 12 84 14 17 2 71 16 120 31 50 15 106 32 125
37 19 5 81 25 138 44 57 18 140 40 184 49 45 8 84 17 86 20 7 6 -22 4 -124
-11z"/>
<path d="M1937 703 c18 -2 50 -2 70 0 21 2 7 4 -32 4 -38 0 -55 -2 -38 -4z"/>
<path d="M2063 693 c9 -2 23 -2 30 0 6 3 -1 5 -18 5 -16 0 -22 -2 -12 -5z"/>
<path d="M2125 680 c11 -5 27 -9 35 -9 9 0 8 4 -5 9 -11 5 -27 9 -35 9 -9 0
-8 -4 5 -9z"/>
<path d="M1817 654 c-37 -8 -152 -40 -255 -70 -103 -31 -218 -64 -257 -74 -60
-15 -65 -18 -33 -19 20 -1 49 4 65 10 15 6 84 26 153 45 69 19 181 50 250 70
69 19 161 39 205 43 l80 8 -70 1 c-38 0 -101 -6 -138 -14z"/>
<path d="M2889 650 c41 -6 124 -23 185 -39 116 -31 267 -62 295 -60 9 0 -13 7
-49 16 -36 8 -130 30 -210 50 -80 19 -179 36 -220 38 l-75 4 74 -9z"/>
<path d="M2510 613 c0 -20 15 -23 27 -4 8 13 7 17 -8 17 -11 0 -19 -6 -19 -13z"/>
<path d="M2768 603 c7 -3 16 -2 19 1 4 3 -2 6 -13 5 -11 0 -14 -3 -6 -6z"/>
<path d="M2808 593 c7 -3 16 -2 19 1 4 3 -2 6 -13 5 -11 0 -14 -3 -6 -6z"/>
<path d="M3548 593 c7 -3 16 -2 19 1 4 3 -2 6 -13 5 -11 0 -14 -3 -6 -6z"/>
<path d="M3403 543 c9 -2 23 -2 30 0 6 3 -1 5 -18 5 -16 0 -22 -2 -12 -5z"/>
<path d="M3808 543 c12 -2 32 -2 45 0 12 2 2 4 -23 4 -25 0 -35 -2 -22 -4z"/>
<path d="M1943 524 c7 -8 118 -6 125 1 3 3 -25 5 -63 5 -38 0 -65 -3 -62 -6z"/>
<path d="M818 503 c7 -3 16 -2 19 1 4 3 -2 6 -13 5 -11 0 -14 -3 -6 -6z"/>
<path d="M883 493 c9 -2 25 -2 35 0 9 3 1 5 -18 5 -19 0 -27 -2 -17 -5z"/>
<path d="M988 493 c12 -2 32 -2 45 0 12 2 2 4 -23 4 -25 0 -35 -2 -22 -4z"/>
<path d="M1183 483 c9 -2 25 -2 35 0 9 3 1 5 -18 5 -19 0 -27 -2 -17 -5z"/>
</g>
</svg>
